<svg width="33" height="24" viewBox="0 0 33 24" fill="none" xmlns="http://www.w3.org/2000/svg">
<path d="M31.7736 6.26744C31.7736 3.3233 29.2371 0.24302 29.2371 1.16687C29.2371 2.09072 29.7062 14.3603 29.7062 14.3603L29.2371 22.3837C29.2371 22.9309 29.6806 23.3745 30.2278 23.3745C30.775 23.3745 31.2186 22.9309 31.2186 22.3837L30.9566 14.3142C30.9566 14.3142 31.7736 9.21158 31.7736 6.26744Z" stroke="#FCC436" stroke-width="0.625894" stroke-miterlimit="10"/>
<mask id="path-2-inside-1_13_38" fill="white">
<path d="M31.7736 6.26744C31.7736 3.3233 29.2371 0.24302 29.2371 1.16687C29.2371 2.09072 29.7062 14.3603 29.7062 14.3603L29.2371 22.3837C29.2371 22.9309 29.6806 23.3745 30.2278 23.3745C30.775 23.3745 31.2186 22.9309 31.2186 22.3837L30.9566 14.3142C30.9566 14.3142 31.7736 9.21158 31.7736 6.26744Z"/>
</mask>
<path d="M29.7062 14.3603L32.8304 14.5429L32.8392 14.3919L32.8334 14.2407L29.7062 14.3603ZM29.2371 22.3837L26.1129 22.201L26.1076 22.2923V22.3837H29.2371ZM31.2186 22.3837H34.3481V22.3329L34.3464 22.2822L31.2186 22.3837ZM30.9566 14.3142L27.8665 13.8194L27.819 14.1158L27.8288 14.4157L30.9566 14.3142ZM34.9031 6.26744C34.9031 3.9968 33.9682 1.91262 33.1649 0.617369C32.77 -0.0195372 32.2569 -0.710426 31.6759 -1.21093C31.5188 -1.34632 31.2895 -1.52649 30.9984 -1.68926C30.7572 -1.82414 30.1891 -2.11125 29.4165 -2.12864C28.4369 -2.15069 27.3516 -1.71651 26.6733 -0.713679C26.1448 0.0676726 26.1076 0.848277 26.1076 1.16687H32.3665C32.3665 1.36998 32.3491 2.06639 31.8578 2.7928C31.2167 3.7407 30.1859 4.1492 29.2756 4.12871C28.5723 4.11288 28.0885 3.85457 27.9439 3.7737C27.7494 3.66496 27.6291 3.56402 27.5909 3.53106C27.4855 3.44028 27.6066 3.53025 27.8458 3.91595C28.3108 4.66591 28.6442 5.59394 28.6442 6.26744H34.9031ZM26.1076 1.16687C26.1076 1.70495 26.2291 5.09913 26.3443 8.22526C26.403 9.81796 26.4617 11.3815 26.5057 12.5468C26.5277 13.1295 26.546 13.6127 26.5589 13.9502C26.5653 14.119 26.5703 14.2513 26.5738 14.3415C26.5755 14.3866 26.5768 14.4212 26.5777 14.4445C26.5782 14.4561 26.5785 14.4649 26.5787 14.4709C26.5788 14.4738 26.5789 14.4761 26.579 14.4776C26.579 14.4783 26.579 14.4789 26.579 14.4793C26.579 14.4795 26.579 14.4796 26.5791 14.4797C26.5791 14.4798 26.5791 14.4798 29.7062 14.3603C32.8334 14.2407 32.8334 14.2406 32.8334 14.2405C32.8334 14.2404 32.8334 14.2403 32.8334 14.2401C32.8334 14.2398 32.8334 14.2392 32.8333 14.2385C32.8333 14.237 32.8332 14.2348 32.8331 14.2318C32.8329 14.226 32.8325 14.2172 32.8321 14.2056C32.8312 14.1824 32.8299 14.1479 32.8282 14.103C32.8247 14.013 32.8197 13.8808 32.8133 13.7123C32.8005 13.3752 32.7822 12.8926 32.7602 12.3106C32.7162 11.1465 32.6576 9.58491 32.599 7.99476C32.5404 6.40412 32.4818 4.78688 32.438 3.51062C32.4161 2.87212 32.3979 2.32197 32.3853 1.90435C32.3789 1.69528 32.3741 1.52285 32.3709 1.39083C32.3693 1.32479 32.3681 1.27167 32.3674 1.23079C32.367 1.21046 32.3668 1.19468 32.3667 1.18291C32.3665 1.17058 32.3665 1.16586 32.3665 1.16687H26.1076ZM26.5821 14.1776L26.1129 22.201L32.3612 22.5664L32.8304 14.5429L26.5821 14.1776ZM26.1076 22.3837C26.1076 24.6593 27.9523 26.504 30.2278 26.504V20.245C31.409 20.245 32.3665 21.2026 32.3665 22.3837H26.1076ZM30.2278 26.504C32.5034 26.504 34.3481 24.6593 34.3481 22.3837H28.0891C28.0891 21.2026 29.0467 20.245 30.2278 20.245V26.504ZM34.3464 22.2822L34.0844 14.2126L27.8288 14.4157L28.0908 22.4853L34.3464 22.2822ZM30.9566 14.3142C34.0467 14.809 34.0467 14.8088 34.0468 14.8087C34.0468 14.8086 34.0468 14.8084 34.0468 14.8082C34.0469 14.8079 34.047 14.8075 34.047 14.807C34.0472 14.806 34.0474 14.8047 34.0477 14.8031C34.0482 14.7999 34.0489 14.7954 34.0498 14.7898C34.0516 14.7785 34.0541 14.7625 34.0573 14.7418C34.0638 14.7006 34.0731 14.641 34.0848 14.5649C34.1082 14.4126 34.1413 14.194 34.1809 13.9232C34.2599 13.3825 34.3652 12.6299 34.4707 11.7808C34.6762 10.1269 34.9031 7.9489 34.9031 6.26744H28.6442C28.6442 7.53012 28.4625 9.37555 28.2595 11.0089C28.1608 11.8035 28.0619 12.5105 27.9877 13.0186C27.9506 13.2722 27.9199 13.4752 27.8986 13.6135C27.888 13.6826 27.8797 13.7356 27.8742 13.7705C27.8715 13.7879 27.8694 13.8009 27.8681 13.8091C27.8675 13.8132 27.867 13.8162 27.8667 13.8179C27.8666 13.8187 27.8665 13.8193 27.8665 13.8195C27.8665 13.8197 27.8664 13.8197 27.8664 13.8197C27.8664 13.8197 27.8665 13.8196 27.8665 13.8196C27.8665 13.8195 27.8665 13.8194 30.9566 14.3142Z" fill="#FCC436" mask="url(#path-2-inside-1_13_38)"/>
<path d="M4.67633 1.53338C4.67633 1.53338 4.73156 3.5932 4.73156 5.5489C4.73156 7.0157 4.28606 7.93682 3.65117 8.30574L3.66529 22.3837C3.66529 22.9309 3.22172 23.3745 2.67451 23.3745C2.12731 23.3745 1.68374 22.9309 1.68374 22.3837L2.0854 8.30866C1.44783 7.94168 1 7.01951 1 5.5489C1 3.5932 1.05524 1.53338 1.05524 1.53338" stroke="#FCC436" stroke-width="0.990777" stroke-miterlimit="10" stroke-linecap="round" stroke-linejoin="round"/>
<path d="M2.86584 1.53339V6.28164" stroke="#FCC436" stroke-width="0.990777" stroke-miterlimit="10" stroke-linecap="round" stroke-linejoin="round"/>
<path d="M16.8524 22.026C22.3129 22.026 26.7395 17.5994 26.7395 12.1389C26.7395 6.67842 22.3129 2.25181 16.8524 2.25181C11.3919 2.25181 6.96527 6.67842 6.96527 12.1389C6.96527 17.5994 11.3919 22.026 16.8524 22.026Z" stroke="#FCC436" stroke-width="1.87768" stroke-miterlimit="10" stroke-linecap="round" stroke-linejoin="round"/>
<path d="M16.8544 18.1783C20.1785 18.1783 22.8731 15.4836 22.8731 12.1596C22.8731 8.83551 20.1785 6.14084 16.8544 6.14084C13.5304 6.14084 10.8357 8.83551 10.8357 12.1596C10.8357 15.4836 13.5304 18.1783 16.8544 18.1783Z" fill="#FCC436"/>
<path d="M1 6.00716H4.75536L4.12947 8.51073L3.84205 22.3067C3.82787 22.9876 3.27184 23.5322 2.59081 23.5322C1.88941 23.5322 1.32495 22.9559 1.33956 22.2546L1.62589 8.51073L1 6.00716Z" fill="#FCC436"/>
</svg>
