<svg width="34" height="33" viewBox="0 0 34 33" fill="none" xmlns="http://www.w3.org/2000/svg">
<path d="M12.587 14.7288C12.587 14.7288 11.0942 14.6216 10.7116 14.239C10.329 13.8564 10.329 13.2361 10.7116 12.8535C11.0942 12.4709 11.7145 12.4709 12.0971 12.8535C12.4797 13.2361 12.587 14.7288 12.587 14.7288Z" fill="#FCC436"/>
<mask id="path-2-outside-1_13_132" maskUnits="userSpaceOnUse" x="4.13385" y="-0.0383606" width="27" height="16" fill="black">
<rect fill="white" x="4.13385" y="-0.0383606" width="27" height="16"/>
<path d="M9.38211 12.3657L10.3803 7.83556C10.3803 7.83556 6.61793 7.52843 7.1938 4.18843C7.1938 4.18843 12.0695 5.80087 13.4515 4.41876C13.4515 4.41876 16.507 1.1543 21.385 4.39774C23.0125 5.47997 27.6427 4.16742 27.6427 4.16742C28.2186 7.50741 24.4562 7.81455 24.4562 7.81455L25.4544 12.3447"/>
</mask>
<path d="M6.72894 11.7811C6.40607 13.2464 7.33221 14.696 8.79751 15.0189C10.2628 15.3417 11.7124 14.4156 12.0353 12.9503L6.72894 11.7811ZM10.3803 7.83556L13.0335 8.42016C13.2023 7.65403 13.0317 6.85232 12.5655 6.22131C12.0994 5.5903 11.3832 5.19159 10.6013 5.12776L10.3803 7.83556ZM7.1938 4.18843L8.04684 1.60901C7.29605 1.36072 6.47434 1.45186 5.79621 1.85866C5.11808 2.26546 4.65085 2.94753 4.51649 3.72682L7.1938 4.18843ZM13.4515 4.41876L15.3727 6.3398C15.3938 6.31864 15.4146 6.29713 15.4351 6.27528L13.4515 4.41876ZM21.385 4.39774L22.8893 2.13541L22.8892 2.13539L21.385 4.39774ZM27.6427 4.16742L30.32 3.7058C30.1891 2.94667 29.7421 2.27879 29.0902 1.86835C28.4384 1.45791 27.6429 1.3435 26.9017 1.5536L27.6427 4.16742ZM24.4562 7.81455L24.2352 5.10674C23.4533 5.17057 22.7371 5.56928 22.271 6.2003C21.8049 6.83131 21.6342 7.63301 21.8031 8.39915L24.4562 7.81455ZM22.8012 12.9293C23.1241 14.3946 24.5737 15.3207 26.039 14.9979C27.5043 14.675 28.4304 13.2254 28.1076 11.7601L22.8012 12.9293ZM12.0353 12.9503L13.0335 8.42016L7.72711 7.25096L6.72894 11.7811L12.0353 12.9503ZM10.3803 7.83556C10.6013 5.12776 10.6025 5.12785 10.6037 5.12795C10.604 5.12798 10.6052 5.12807 10.6059 5.12813C10.6074 5.12826 10.6088 5.12838 10.6102 5.12849C10.6129 5.12873 10.6155 5.12895 10.6178 5.12916C10.6225 5.12958 10.6265 5.12994 10.6296 5.13025C10.636 5.13086 10.6394 5.13123 10.64 5.1313C10.6412 5.13144 10.632 5.13042 10.6139 5.12778C10.5769 5.12234 10.5096 5.11103 10.4244 5.09097C10.2379 5.04702 10.0519 4.98126 9.91478 4.90323C9.78233 4.82785 9.79821 4.80107 9.83415 4.86699C9.89045 4.97028 9.81806 4.95775 9.87111 4.65004L4.51649 3.72682C4.28161 5.08911 4.46356 6.36746 5.06334 7.46772C5.64276 8.53061 6.49125 9.20685 7.2274 9.62576C7.95887 10.042 8.67749 10.2618 9.17838 10.3798C9.43696 10.4407 9.6591 10.4795 9.82554 10.5039C9.90926 10.5162 9.98026 10.525 10.0363 10.5313C10.0644 10.5344 10.0888 10.5369 10.1094 10.5389C10.1196 10.5399 10.129 10.5408 10.1373 10.5415C10.1414 10.5419 10.1453 10.5422 10.149 10.5425C10.1508 10.5427 10.1526 10.5428 10.1543 10.543C10.1552 10.543 10.1564 10.5431 10.1568 10.5432C10.158 10.5433 10.1592 10.5434 10.3803 7.83556ZM7.1938 4.18843C6.34076 6.76785 6.34121 6.768 6.34167 6.76815C6.34185 6.76821 6.34234 6.76837 6.3427 6.76849C6.34343 6.76873 6.34423 6.76899 6.3451 6.76928C6.34685 6.76986 6.3489 6.77053 6.35125 6.7713C6.35596 6.77284 6.36185 6.77477 6.36891 6.77706C6.38302 6.78164 6.4018 6.78769 6.42498 6.79507C6.47131 6.80981 6.53537 6.8299 6.61508 6.85415C6.7742 6.90257 6.99731 6.96812 7.26738 7.04122C7.80161 7.18582 8.54751 7.36763 9.36076 7.50223C10.1524 7.63327 11.1229 7.73953 12.0705 7.67671C12.9164 7.62062 14.3144 7.3981 15.3727 6.3398L11.5304 2.49771C11.8977 2.13047 12.1679 2.22469 11.711 2.25499C11.3556 2.27855 10.8481 2.24085 10.248 2.14154C9.66961 2.0458 9.11022 1.91087 8.68706 1.79633C8.47845 1.73987 8.30985 1.69024 8.19693 1.65588C8.14061 1.63874 8.09858 1.62553 8.07282 1.61733C8.05995 1.61324 8.05118 1.6104 8.04675 1.60897C8.04454 1.60825 8.04343 1.60788 8.04343 1.60789C8.04343 1.60789 8.04371 1.60798 8.04428 1.60817C8.04457 1.60826 8.04492 1.60838 8.04535 1.60852C8.04556 1.60859 8.04594 1.60871 8.04604 1.60875C8.04643 1.60888 8.04684 1.60901 7.1938 4.18843ZM13.4515 4.41876C15.4351 6.27528 15.4339 6.27652 15.4328 6.27775C15.4324 6.27815 15.4312 6.27936 15.4305 6.28015C15.429 6.28173 15.4276 6.28326 15.4262 6.28475C15.4234 6.28772 15.4207 6.29052 15.4182 6.29314C15.4132 6.29838 15.4088 6.30292 15.405 6.30681C15.3974 6.31456 15.3923 6.3197 15.3894 6.32247C15.3838 6.32796 15.3874 6.32424 15.3997 6.31328C15.4248 6.29093 15.4823 6.24202 15.5693 6.18075C15.747 6.05567 16.0189 5.89909 16.3673 5.79492C16.9482 5.62123 18.0974 5.47437 19.8807 6.6601L22.8892 2.13539C19.7945 0.0776658 16.977 -0.0586784 14.8108 0.588994C13.7856 0.895514 12.9887 1.35233 12.441 1.73798C12.1654 1.93207 11.9461 2.11286 11.785 2.25636C11.7043 2.32833 11.6374 2.39159 11.5847 2.44331C11.5583 2.46919 11.5353 2.49227 11.5159 2.51218C11.5062 2.52214 11.4973 2.53131 11.4894 2.53967C11.4854 2.54385 11.4816 2.54782 11.478 2.55158C11.4763 2.55346 11.4745 2.55529 11.4729 2.55706C11.472 2.55795 11.4708 2.55925 11.4704 2.55969C11.4692 2.56097 11.468 2.56223 13.4515 4.41876ZM19.8807 6.66008C20.914 7.34715 22.1168 7.49677 22.9301 7.53251C23.8253 7.57186 24.7393 7.48691 25.5054 7.37835C26.2856 7.26779 26.9955 7.12047 27.5053 7.0027C27.7624 6.94331 27.9741 6.89017 28.1248 6.85093C28.2003 6.83129 28.2609 6.81504 28.3046 6.80313C28.3264 6.79717 28.3441 6.79229 28.3574 6.78861C28.364 6.78676 28.3695 6.78522 28.3739 6.78398C28.3761 6.78337 28.378 6.78283 28.3797 6.78237C28.3805 6.78214 28.3812 6.78193 28.3819 6.78174C28.3822 6.78165 28.3827 6.78152 28.3828 6.78147C28.3833 6.78135 28.3837 6.78123 27.6427 4.16742C26.9017 1.5536 26.9021 1.55349 26.9025 1.55339C26.9026 1.55336 26.9029 1.55326 26.9031 1.55321C26.9035 1.5531 26.9038 1.55301 26.9041 1.55294C26.9046 1.55279 26.9048 1.55273 26.9048 1.55274C26.9047 1.55276 26.9036 1.55308 26.9014 1.55369C26.897 1.5549 26.8885 1.55726 26.876 1.56065C26.8511 1.56744 26.8106 1.57834 26.7563 1.59247C26.6475 1.62078 26.4847 1.66173 26.2824 1.70848C25.8731 1.803 25.3237 1.91618 24.743 1.99847C24.1481 2.08278 23.5994 2.12305 23.1687 2.10412C22.656 2.0816 22.6698 1.98945 22.8893 2.13541L19.8807 6.66008ZM24.9654 4.62903C25.0184 4.93673 24.9461 4.94927 25.0024 4.84598C25.0383 4.78005 25.0542 4.80684 24.9217 4.88222C24.7846 4.96025 24.5986 5.02601 24.4121 5.06996C24.3269 5.09002 24.2596 5.10133 24.2226 5.10676C24.2045 5.10941 24.1953 5.11043 24.1965 5.11029C24.1971 5.11022 24.2005 5.10984 24.2069 5.10923C24.21 5.10893 24.214 5.10856 24.2187 5.10814C24.221 5.10794 24.2236 5.10771 24.2263 5.10748C24.2277 5.10736 24.2291 5.10724 24.2306 5.10712C24.2313 5.10706 24.2325 5.10696 24.2329 5.10693C24.234 5.10684 24.2352 5.10674 24.4562 7.81455C24.6773 10.5224 24.6785 10.5223 24.6797 10.5222C24.6801 10.5221 24.6813 10.522 24.6822 10.5219C24.6839 10.5218 24.6857 10.5217 24.6875 10.5215C24.6912 10.5212 24.6951 10.5209 24.6992 10.5205C24.7075 10.5197 24.7169 10.5189 24.7271 10.5179C24.7477 10.5159 24.7721 10.5134 24.8002 10.5103C24.8562 10.504 24.9273 10.4952 25.011 10.4829C25.1774 10.4585 25.3996 10.4197 25.6581 10.3588C26.159 10.2408 26.8776 10.021 27.6091 9.60474C28.3453 9.18584 29.1937 8.50959 29.7732 7.4467C30.3729 6.34645 30.5549 5.0681 30.32 3.7058L24.9654 4.62903ZM21.8031 8.39915L22.8012 12.9293L28.1076 11.7601L27.1094 7.22995L21.8031 8.39915Z" fill="#FCC436" mask="url(#path-2-outside-1_13_132)"/>
<path d="M13.7238 22.0474H21.4275C21.5607 22.0474 21.6883 22.1032 21.7744 22.2048C22.1891 22.6943 23.3146 24.3343 22.8003 27.2486C22.7103 27.7583 22.2298 28.1019 21.7208 28.008C20.0181 27.6942 16.1737 27.1316 13.5113 27.8482C12.9696 27.994 12.4304 27.6258 12.3635 27.0689C12.2155 25.8386 12.2088 23.822 13.3482 22.235C13.434 22.1155 13.5768 22.0474 13.7238 22.0474Z" fill="#FCC436"/>
<path d="M14.402 24.1425C14.402 24.1425 14.0658 25.5411 15.9469 25.5758" stroke="white" stroke-width="0.905605" stroke-miterlimit="10" stroke-linecap="round" stroke-linejoin="round"/>
<path d="M14.0399 29.6236C14.0399 29.6236 17.1495 33.5011 20.7967 29.7772" stroke="#FCC436" stroke-width="2.71681" stroke-miterlimit="10" stroke-linecap="round" stroke-linejoin="round"/>
<path d="M8.35271 9.38698C6.85171 8.42805 4.73805 7.13989 2.26127 7.74961C2.26127 7.74961 1.53183 14.6216 9.78591 15.3511L10.3802 15.7826C10.3802 15.7826 9.25819 20.151 10.9983 23.6701" stroke="#FCC436" stroke-width="2.71681" stroke-miterlimit="10" stroke-linecap="round" stroke-linejoin="round"/>
<path d="M22.2495 14.7065C22.2495 14.7065 23.7423 14.5992 24.1249 14.2167C24.5075 13.8341 24.5075 13.2137 24.1249 12.8312C23.7423 12.4486 23.1219 12.4486 22.7394 12.8312C22.3568 13.2137 22.2495 14.7065 22.2495 14.7065Z" fill="#FCC436"/>
<path d="M20.9242 24.1215C20.9242 24.1215 21.2605 25.52 19.3793 25.5548" stroke="white" stroke-width="0.905605" stroke-miterlimit="10" stroke-linecap="round" stroke-linejoin="round"/>
<path d="M26.6029 9.29102C28.0957 8.36618 30.1633 7.13484 32.5752 7.72859C32.5752 7.72859 33.3046 14.6006 25.0506 15.33L24.4562 15.7616C24.4562 15.7616 25.6996 19.6692 23.9595 23.1884" stroke="#FCC436" stroke-width="2.71681" stroke-miterlimit="10" stroke-linecap="round" stroke-linejoin="round"/>
</svg>
