<svg width="21" height="22" viewBox="0 0 21 22" fill="none" xmlns="http://www.w3.org/2000/svg">
<path d="M7.76087 0C6.62313 0 5.65302 0.53142 4.90761 1.28397C4.50102 1.12704 4.11583 0.913043 3.65217 0.913043C1.64419 0.913043 0 2.55724 0 4.56522C0 5.50323 0.381624 6.34137 0.970109 6.99049C0.934443 7.09035 0.913043 7.19735 0.913043 7.30435V19.1739C0.913043 20.6754 2.15065 21.913 3.65217 21.913H14.6087C16.1102 21.913 17.3478 20.6754 17.3478 19.1739V17.3478H18.2609C19.7624 17.3478 21 16.1102 21 14.6087V10.9565C21 9.45499 19.7624 8.21739 18.2609 8.21739H17.3478V7.13315C17.355 7.06539 17.355 7.00119 17.3478 6.93342C17.9042 6.29144 18.2609 5.47469 18.2609 4.56522C18.2609 2.55724 16.6167 0.913043 14.6087 0.913043C13.9275 0.913043 13.3247 1.15557 12.7826 1.4837C12.2405 1.15557 11.6377 0.913043 10.9565 0.913043C10.7211 0.913043 10.5357 0.984375 10.3288 1.02717C9.61906 0.431556 8.75951 0 7.76087 0ZM5.64946 7.53261C6.27361 7.92137 6.97266 8.21739 7.76087 8.21739C7.85717 8.21739 7.89997 8.17103 7.98913 8.16033C7.91423 8.51342 7.9178 8.96637 7.81793 9.2731C7.60037 9.94361 7.30435 10.5856 7.30435 11.413C7.30435 13.1678 8.74524 14.6087 10.5 14.6087C12.2548 14.6087 13.6957 13.1678 13.6957 11.413C13.6957 10.5856 13.3996 9.94005 13.1821 9.2731C13.0644 8.90931 13.0323 8.39572 12.9538 7.9606C13.5387 8.09613 13.8027 8.21739 14.6087 8.21739C14.9226 8.21739 15.2293 8.14963 15.5217 8.07473V8.84511C15.4682 9.02344 15.4682 9.2089 15.5217 9.38723V16.2636C15.4968 16.3849 15.4968 16.5132 15.5217 16.6345V19.1739C15.5217 19.6911 15.1258 20.087 14.6087 20.087H3.65217C3.13502 20.087 2.73913 19.6911 2.73913 19.1739V8.07473C3.03159 8.14963 3.33832 8.21739 3.65217 8.21739C4.40472 8.21739 5.0681 7.92493 5.64946 7.53261ZM17.3478 10.0435H18.2609C18.778 10.0435 19.1739 10.4394 19.1739 10.9565V14.6087C19.1739 15.1258 18.778 15.5217 18.2609 15.5217H17.3478V10.0435Z" fill="#FCC436"/>
</svg>
