<svg width="26" height="25" viewBox="0 0 26 25" fill="none" xmlns="http://www.w3.org/2000/svg">
<path d="M7.07423 5.68951V2.20191C7.07423 1.97067 7.16609 1.7489 7.32961 1.58539C7.49312 1.42188 7.71489 1.33002 7.94613 1.33002C8.17737 1.33002 8.39914 1.42188 8.56265 1.58539C8.72617 1.7489 8.81803 1.97067 8.81803 2.20191V5.68951C8.81803 5.92075 8.72617 6.14252 8.56265 6.30603C8.39914 6.46954 8.17737 6.5614 7.94613 6.5614C7.71489 6.5614 7.49312 6.46954 7.32961 6.30603C7.16609 6.14252 7.07423 5.92075 7.07423 5.68951ZM11.4337 6.5614C11.5482 6.56141 11.6616 6.53886 11.7674 6.49504C11.8732 6.45123 11.9693 6.387 12.0503 6.30604C12.1312 6.22507 12.1954 6.12896 12.2393 6.02317C12.2831 5.91739 12.3056 5.80401 12.3056 5.68951V2.20191C12.3056 1.97067 12.2138 1.7489 12.0502 1.58539C11.8867 1.42188 11.665 1.33002 11.4337 1.33002C11.2025 1.33002 10.9807 1.42188 10.8172 1.58539C10.6537 1.7489 10.5618 1.97067 10.5618 2.20191V5.68951C10.5618 5.80401 10.5844 5.91739 10.6282 6.02317C10.672 6.12896 10.7362 6.22507 10.8172 6.30604C10.8982 6.387 10.9943 6.45123 11.1001 6.49504C11.2058 6.53886 11.3192 6.56141 11.4337 6.5614ZM14.9213 6.5614C15.0358 6.56141 15.1492 6.53886 15.255 6.49504C15.3608 6.45123 15.4569 6.387 15.5378 6.30604C15.6188 6.22507 15.683 6.12896 15.7268 6.02317C15.7707 5.91739 15.7932 5.80401 15.7932 5.68951V2.20191C15.7932 1.97067 15.7014 1.7489 15.5378 1.58539C15.3743 1.42188 15.1526 1.33002 14.9213 1.33002C14.6901 1.33002 14.4683 1.42188 14.3048 1.58539C14.1413 1.7489 14.0494 1.97067 14.0494 2.20191V5.68951C14.0494 5.80401 14.072 5.91739 14.1158 6.02317C14.1596 6.12896 14.2238 6.22507 14.3048 6.30604C14.3857 6.387 14.4819 6.45123 14.5876 6.49504C14.6934 6.53886 14.8068 6.56141 14.9213 6.5614ZM25.3841 12.6647V13.5366C25.3827 14.6453 24.9594 15.7119 24.2002 16.5198C23.4409 17.3278 22.4027 17.8165 21.2962 17.8868C20.7002 19.5691 19.6866 21.0724 18.3505 22.2556H21.0246C21.2558 22.2556 21.4776 22.3474 21.6411 22.5109C21.8046 22.6745 21.8965 22.8962 21.8965 23.1275C21.8965 23.3587 21.8046 23.5805 21.6411 23.744C21.4776 23.9075 21.2558 23.9994 21.0246 23.9994H15.4467C15.4426 23.9994 15.4385 24 15.4344 24C15.4313 24 15.4283 23.9994 15.4252 23.9994H7.41854C7.41354 23.9993 7.40864 23.9995 7.40369 23.9994H1.84285C1.6116 23.9994 1.38983 23.9075 1.22632 23.744C1.06281 23.5805 0.970947 23.3587 0.970947 23.1275C0.970947 22.8962 1.06281 22.6745 1.22632 22.5109C1.38983 22.3474 1.6116 22.2556 1.84285 22.2556H4.51697C3.40472 21.2726 2.51357 20.065 1.90232 18.7124C1.29108 17.3597 0.973636 15.8928 0.970947 14.4085V9.1771C0.970944 9.0626 0.993494 8.94922 1.03731 8.84343C1.08113 8.73765 1.14535 8.64153 1.22631 8.56057C1.30728 8.4796 1.4034 8.41538 1.50918 8.37156C1.61497 8.32775 1.72834 8.3052 1.84285 8.3052H21.0246C22.1804 8.3065 23.2885 8.76622 24.1058 9.5835C24.9231 10.4008 25.3828 11.5089 25.3841 12.6647ZM20.1527 10.049H2.71474V14.4085C2.71802 16.0455 3.18054 17.6487 4.04971 19.0359C4.91888 20.4231 6.15983 21.5386 7.63146 22.2556H15.236C16.3357 21.7196 17.3109 20.959 18.0986 20.0229C18.8864 19.0869 19.4691 17.9961 19.8093 16.8209C19.8149 16.7975 19.8211 16.7743 19.8286 16.7517C20.0432 15.9891 20.1522 15.2007 20.1527 14.4085V10.049ZM23.6403 12.6647C23.6396 12.124 23.4716 11.5967 23.1594 11.1553C22.8472 10.7138 22.4061 10.3798 21.8965 10.199V14.4085C21.896 14.9565 21.8522 15.5037 21.7654 16.0448C22.3063 15.8843 22.781 15.5536 23.1188 15.1016C23.4566 14.6497 23.6395 14.1008 23.6403 13.5366V12.6647Z" fill="#FCC436" stroke="#FCC436"/>
</svg>
