<svg width="15" height="26" viewBox="0 0 15 26" fill="none" xmlns="http://www.w3.org/2000/svg">
<path d="M0.897187 0C0.401689 0 0 0.401689 0 0.897188V9.86906C0 13.5298 2.7406 16.5504 6.282 16.9913C6.28089 17.0096 6.28031 17.0279 6.28031 17.0466V23.3269H3.58875C3.09325 23.3269 2.69156 23.7286 2.69156 24.2241C2.69156 24.7195 3.09325 25.1213 3.58875 25.1213H10.7662C11.2617 25.1213 11.6634 24.7195 11.6634 24.2241C11.6634 23.7286 11.2617 23.3269 10.7662 23.3269H8.07469V17.0466C8.07469 17.0279 8.07411 17.0096 8.073 16.9913C11.6145 16.5504 14.355 13.5298 14.355 9.86906V0.897188C14.355 0.401689 13.9532 0 13.4578 0H0.897187ZM1.79437 5.38313V1.79438H12.5606V5.38313H1.79437ZM12.0819 9.51588C11.967 10.5516 11.5272 11.5244 10.8255 12.2947C10.1238 13.0651 9.19617 13.5936 8.17564 13.8044C7.69039 13.9046 7.21576 13.5925 7.11552 13.1072C7.01529 12.6219 7.32742 12.1473 7.81269 12.0471C8.46211 11.9129 9.05241 11.5766 9.49895 11.0864C9.94552 10.5962 10.2254 9.97714 10.2985 9.31805C10.3531 8.82556 10.7968 8.47062 11.2891 8.52526C11.7817 8.57988 12.1366 9.02341 12.0819 9.51588Z" fill="#FCC436"/>
</svg>
