<svg width="21" height="28" viewBox="0 0 21 28" fill="none" xmlns="http://www.w3.org/2000/svg">
<path d="M20.3142 2.62375C20.2347 2.90644 20.058 3.11846 19.7841 3.25981C19.5103 3.40115 19.2231 3.43649 18.9228 3.36582L15.0269 2.22621L14.2848 5.08848H14.4174C14.647 5.08848 14.8458 5.17241 15.0137 5.34025C15.1815 5.5081 15.2654 5.70687 15.2654 5.93656V25.4424C15.2654 25.9194 15.0976 26.3214 14.7619 26.6483C14.4262 26.9751 14.0287 27.1386 13.5693 27.1386H6.78464C6.3076 27.1386 5.90564 26.9707 5.57878 26.635C5.25191 26.2993 5.08848 25.9018 5.08848 25.4424V10.177C3.67501 10.177 2.47357 9.68225 1.48414 8.69282C0.494713 7.70339 0 6.50195 0 5.08848C0 3.67501 0.494713 2.47357 1.48414 1.48414C2.47357 0.494713 3.67501 0 5.08848 0C6.50195 0 7.70339 0.494713 8.69282 1.48414C9.68225 2.47357 10.177 3.67501 10.177 5.08848H12.1116L13.2247 0.84808C13.2954 0.63606 13.3926 0.472628 13.5163 0.357784C13.64 0.24294 13.799 0.163432 13.9933 0.119261C14.1877 0.0750904 14.3379 0.0485879 14.4439 0.0397538C14.5499 0.0309196 14.7354 0.0265025 15.0004 0.0265025L19.5058 1.35163C19.8239 1.4223 20.058 1.58132 20.2082 1.82867C20.3583 2.07603 20.3937 2.34105 20.3142 2.62375ZM6.78464 8.00376C7.29702 7.70339 7.70339 7.29702 8.00376 6.78464H6.78464V8.00376ZM5.08848 1.69616C4.15206 1.69616 3.35257 2.02744 2.69 2.69C2.02744 3.35257 1.69616 4.15206 1.69616 5.08848C1.69616 6.0249 2.02744 6.82439 2.69 7.48696C3.35257 8.14952 4.15206 8.4808 5.08848 8.4808V5.93656C5.08848 5.70687 5.1724 5.5081 5.34025 5.34025C5.5081 5.17241 5.70687 5.08848 5.93656 5.08848H8.4808C8.4808 4.15206 8.14952 3.35257 7.48696 2.69C6.82439 2.02744 6.0249 1.69616 5.08848 1.69616ZM9.85893 6.78464C9.61157 7.50904 9.21845 8.14069 8.67957 8.67957C8.14069 9.21845 7.50904 9.61157 6.78464 9.85893V11.8731H10.3095L11.6611 6.78464H9.85893ZM13.5693 7.79174L12.4827 11.8731H13.5693V7.79174Z" fill="#FCC436"/>
</svg>
