<svg width="30" height="30" viewBox="0 0 30 30" fill="none" xmlns="http://www.w3.org/2000/svg">
<g clip-path="url(#clip0_2906_2)">
<path d="M23.874 -0.149667L23.8738 -0.149712C23.8071 -0.163022 23.1103 -0.296593 22.1906 -0.232877C21.2725 -0.169271 20.109 0.0926783 19.1335 0.89176C18.3549 1.52961 17.8298 2.387 17.5552 3.43842C15.9442 2.86598 14.1381 2.83573 12.4451 3.4386C12.1704 2.38715 11.6454 1.5297 10.8666 0.891811C9.89119 0.0927392 8.72766 -0.16924 7.80952 -0.23287C6.88983 -0.296606 6.19299 -0.163063 6.12622 -0.149682L6.12613 -0.149663C5.44993 -0.0138671 5.00851 0.644861 5.14444 1.32235L5.14444 1.32237C5.27997 1.99762 5.9346 2.43766 6.61154 2.30288C6.64545 2.29682 7.05682 2.22599 7.58672 2.25518C8.14494 2.28594 8.79842 2.42579 9.28899 2.83133C9.75567 3.21713 10.0537 3.84495 10.1434 4.74557C9.60337 5.19227 9.12438 5.71399 8.7228 6.29814H2.41469C1.72431 6.29814 1.16461 6.85784 1.16461 7.54822C1.16461 10.3607 3.60055 12.5488 6.36595 12.2792C6.31651 12.4224 6.25751 12.5934 6.18926 12.7911C5.79389 13.9365 5.08783 15.9821 4.12826 18.7613C3.9029 19.4139 4.24927 20.1256 4.90192 20.3508C5.55461 20.5761 6.26624 20.2297 6.49148 19.5772L6.83611 18.5791L10.1645 26.9663C10.9535 28.9547 12.8443 30.2422 14.9824 30.2493L14.9844 30.2495C14.9883 30.2497 14.9937 30.2499 15.0001 30.2499C15.0032 30.2499 15.006 30.2498 15.0086 30.2498C15.0113 30.2497 15.0138 30.2496 15.0158 30.2495L15.0178 30.2493C17.1554 30.2422 19.0462 28.9548 19.8355 26.9664L19.8355 26.9663L23.1639 18.5793L23.5084 19.5772L23.5084 19.5772C23.7339 20.23 24.4455 20.576 25.098 20.3508L25.098 20.3508C25.7506 20.1255 26.0969 19.4139 25.8716 18.7613L25.6353 18.8429L25.8716 18.7613C25.6484 18.1147 25.4543 17.5528 25.2839 17.0594C24.3135 14.25 24.1096 13.6595 23.6473 12.2805C26.4153 12.543 28.8354 10.3476 28.8354 7.54822C28.8354 6.85784 28.2757 6.29814 27.5853 6.29814H21.2799C20.891 5.70053 20.4411 5.20979 19.8573 4.74018C19.9477 3.84243 20.2454 3.21631 20.7111 2.83128C21.2017 2.42575 21.8552 2.28586 22.413 2.25498C22.9495 2.22528 23.3633 2.2983 23.3823 2.30166C23.3829 2.30177 23.3831 2.30181 23.383 2.30177L23.4312 2.05646L23.3822 2.30161C24.0595 2.43696 24.7177 1.99883 24.8536 1.32198C24.9895 0.645001 24.5508 -0.0138048 23.874 -0.149667ZM17.4894 21.5873L17.4894 21.5873C18.1883 20.7802 17.6155 19.5188 16.5445 19.5188H13.4557C12.3884 19.5188 11.8096 20.7774 12.5108 21.5873L12.5108 21.5873L13.7501 23.0182V27.4461C13.1876 27.1541 12.735 26.6656 12.4885 26.0442L12.2561 26.1364L12.4885 26.0442L8.08741 14.9541C9.64521 10.4424 9.73667 10.1782 9.82731 9.91379C9.84706 9.85619 9.86676 9.79858 9.90156 9.69708L9.9016 9.69698C10.8603 6.89744 12.9328 5.48481 14.9746 5.45839C17.0127 5.43203 19.1017 6.78618 20.098 9.69563L20.098 9.69567C20.2809 10.2293 20.9957 12.2982 21.4813 13.7037C21.6828 14.2868 21.8448 14.7558 21.9131 14.9536L17.5117 26.0441C17.2651 26.6654 16.8125 27.154 16.2501 27.446V23.0182L17.4894 21.5873ZM7.41981 9.22639C6.38641 10.1535 4.78655 9.92106 4.04259 8.7983H7.56652C7.55273 8.83854 7.53873 8.87943 7.52447 8.92108C7.49121 9.01819 7.45654 9.11945 7.41981 9.22639ZM25.9572 8.7983C25.227 9.89909 23.6659 10.1529 22.6226 9.26254C22.5655 9.10245 22.5094 8.94782 22.4539 8.7983H25.9572Z" fill="#FCC436" stroke="#FCC436" stroke-width="0.5"/>
<path d="M17.7548 15.9374C18.4854 15.9374 19.0777 15.3451 19.0777 14.6145C19.0777 13.8839 18.4854 13.2916 17.7548 13.2916C17.0242 13.2916 16.4319 13.8839 16.4319 14.6145C16.4319 15.3451 17.0242 15.9374 17.7548 15.9374Z" fill="#FCC436"/>
<path d="M12.2855 15.9374C13.0161 15.9374 13.6084 15.3451 13.6084 14.6145C13.6084 13.8839 13.0161 13.2916 12.2855 13.2916C11.5548 13.2916 10.9625 13.8839 10.9625 14.6145C10.9625 15.3451 11.5548 15.9374 12.2855 15.9374Z" fill="#FCC436"/>
</g>
<defs>
<clipPath id="clip0_2906_2">
<rect width="30" height="30" fill="white"/>
</clipPath>
</defs>
</svg>
